<?xml version="1.0" encoding="UTF-8" standalone="no"?>
<!-- Created with Inkscape (http://www.inkscape.org/) -->

<svg
   xmlns:dc="http://purl.org/dc/elements/1.1/"
   xmlns:cc="http://creativecommons.org/ns#"
   xmlns:rdf="http://www.w3.org/1999/02/22-rdf-syntax-ns#"
   xmlns:svg="http://www.w3.org/2000/svg"
   xmlns="http://www.w3.org/2000/svg"
   xmlns:sodipodi="http://sodipodi.sourceforge.net/DTD/sodipodi-0.dtd"
   xmlns:inkscape="http://www.inkscape.org/namespaces/inkscape"
   width="2100"
   height="3150"
   id="svg2"
   version="1.1"
   inkscape:version="0.47 r22583"
   sodipodi:docname="KablamTemplate.svg">
  <defs
     id="defs4">
    <inkscape:perspective
       id="perspective3427"
       inkscape:persp3d-origin="0.5 : 0.33333333 : 1"
       inkscape:vp_z="1 : 0.5 : 1"
       inkscape:vp_y="0 : 1000 : 0"
       inkscape:vp_x="0 : 0.5 : 1"
       sodipodi:type="inkscape:persp3d" />
  </defs>
  <sodipodi:namedview
     id="base"
     pagecolor="#ffffff"
     bordercolor="#666666"
     borderopacity="1.0"
     inkscape:pageopacity="0.0"
     inkscape:pageshadow="2"
     inkscape:zoom="0.19301587"
     inkscape:cx="386.84211"
     inkscape:cy="1575"
     inkscape:document-units="px"
     inkscape:current-layer="layer1"
     showgrid="false"
     inkscape:window-width="1280"
     inkscape:window-height="745"
     inkscape:window-x="-4"
     inkscape:window-y="32"
     inkscape:window-maximized="1"
     inkscape:snap-global="false">
    <sodipodi:guide
       position="2063.7617,2317.3544"
       orientation="19.32135,0"
       id="guide3170" />
    <sodipodi:guide
       position="1987.544,1900.4171"
       orientation="19.6086,0"
       id="guide3174" />
    <sodipodi:guide
       position="112.20815,1910.6328"
       orientation="16.1228,0"
       id="guide3178" />
    <sodipodi:guide
       position="38.759853,1908.3528"
       orientation="9.12,0"
       id="guide3182" />
    <sodipodi:guide
       position="1094.6304,3114.1293"
       orientation="0,59.0212"
       id="guide3186" />
    <sodipodi:guide
       position="1145.6438,3038.5043"
       orientation="0,17.1496"
       id="guide3190" />
    <sodipodi:guide
       position="840.0097,113.9712"
       orientation="0,37.99039"
       id="guide3194" />
    <sodipodi:guide
       position="865.15706,38.9972"
       orientation="0,12.90789"
       id="guide3198" />
  </sodipodi:namedview>
  <metadata
     id="metadata7">
    <rdf:RDF>
      <cc:Work
         rdf:about="">
        <dc:format>image/svg+xml</dc:format>
        <dc:type
           rdf:resource="http://purl.org/dc/dcmitype/StillImage" />
        <dc:title />
      </cc:Work>
    </rdf:RDF>
  </metadata>
  <g
     inkscape:label="Sketch"
     inkscape:groupmode="layer"
     id="layer1"
     transform="translate(0,2097.6378)" />
  <g
     inkscape:groupmode="layer"
     id="layer4"
     inkscape:label="Panels"
     sodipodi:insensitive="true" />
  <g
     inkscape:groupmode="layer"
     id="layer2"
     inkscape:label="Lettering"
     sodipodi:insensitive="true" />
  <g
     inkscape:groupmode="layer"
     id="layer3"
     inkscape:label="Brushes"
     sodipodi:insensitive="true">
    <path
       style="fill:none;stroke:#000000;stroke-width:1px;stroke-linecap:butt;stroke-linejoin:miter;stroke-opacity:1;display:inline;enable-background:new"
       d="m 2358.2914,1196.5609 51.4692,8.1016 -51.4692,8.1017 0,-16.2033 z"
       id="path2906"
       sodipodi:nodetypes="cccc" />
    <path
       sodipodi:nodetypes="ccscs"
       id="path3011-2"
       d="m 2591.8254,1194.0322 c -17.3724,0.1348 -51.4692,8.2037 -51.4692,8.2037 0,0 34.1073,7.8674 51.4692,7.9996 19.2479,0.147 57.1883,-7.9996 57.1883,-7.9996 0,0 -37.9309,-8.3537 -57.1883,-8.2037 z"
       style="fill:none;stroke:#000000;stroke-width:1px;stroke-linecap:butt;stroke-linejoin:miter;stroke-opacity:1;display:inline;enable-background:new" />
    <path
       sodipodi:nodetypes="csss"
       id="path3234"
       d="m 2383.3688,1283.9461 c 17.3598,0.5209 51.1395,1.4399 51.4694,8.1016 0.3146,6.3553 -34.1341,7.0415 -51.4694,8.1016 -38.3633,2.3461 -44.1482,-17.5282 0,-16.2032 z"
       style="fill:none;stroke:#000000;stroke-width:1px;stroke-linecap:butt;stroke-linejoin:miter;stroke-opacity:1;display:inline;enable-background:new" />
    <path
       transform="matrix(1.75,0,0,1.75,1543.3369,-544.37383)"
       sodipodi:type="arc"
       style="color:#000000;fill:none;stroke:#000000;stroke-width:1.14285719;marker:none;visibility:visible;display:inline;overflow:visible;enable-background:accumulate"
       id="path3475"
       sodipodi:cx="596.10583"
       sodipodi:cy="1047.9398"
       sodipodi:rx="17.193415"
       sodipodi:ry="2.8318565"
       d="m 613.29925,1047.9398 a 17.193415,2.8318565 0 1 1 -34.38683,0 17.193415,2.8318565 0 1 1 34.38683,0 z" />
    <path
       style="fill:none;stroke:#000000;stroke-width:1px;stroke-linecap:butt;stroke-linejoin:miter;stroke-opacity:1;display:inline;enable-background:new"
       d="m 2376.4216,1461.758 c -11.323,-1.8578 -16.5723,8.2037 -16.5723,8.2037 0,0 -0.4242,11.5447 16.5723,7.9996 20.1165,-4.1958 57.1883,-7.9996 57.1883,-7.9996 0,0 -38.1218,-5.0754 -57.1883,-8.2037 z"
       id="path3999"
       sodipodi:nodetypes="ccscs" />
    <path
       style="fill:none;stroke:#000000;stroke-width:1px;stroke-linecap:butt;stroke-linejoin:miter;stroke-opacity:1;display:inline;enable-background:new"
       d="m 2638.5125,1463.5077 c -17.3725,0.1347 -75.6196,8.2036 -75.6196,8.2036 0,0 58.2576,7.8675 75.6196,7.9996 19.2478,0.147 33.0379,-7.9996 33.0379,-7.9996 0,0 -13.7806,-8.3536 -33.0379,-8.2036 z"
       id="path4512"
       sodipodi:nodetypes="ccscs" />
    <path
       style="fill:none;stroke:#000000;stroke-width:1px;stroke-linecap:butt;stroke-linejoin:miter;stroke-opacity:1;display:inline;enable-background:new"
       d="m 2373.4783,1372.7592 0,20.1583 c 18.6758,-8.2014 34.8554,-5.2084 48.2862,0 l 0,-20.1583 c -16.0955,8.015 -32.1908,6.7515 -48.2862,0 z"
       id="path3257"
       sodipodi:nodetypes="ccccc" />
    <path
       sodipodi:nodetypes="ccsccsc"
       id="path3903"
       d="m 2571.7104,1373.9752 c -9.655,4.2565 -5.7696,8.5128 0,12.7692 6.7266,1.3811 7.8318,-3.1183 25.0764,-3.1183 12.3253,0 12.3176,4.9714 23.4941,3.1183 7.9307,-4.7558 7.7072,-8.9982 0,-12.7692 -11.645,-1.6058 -11.268,3.5138 -23.4997,3.5138 -16.3644,0 -13.4884,-3.5221 -25.0708,-3.5138 z"
       style="fill:none;stroke:#000000;stroke-width:0.7982344px;stroke-linecap:butt;stroke-linejoin:miter;stroke-opacity:1;display:inline;enable-background:new" />
  </g>
  <g
     inkscape:groupmode="layer"
     id="layer7"
     inkscape:label="Notes"
     sodipodi:insensitive="true">
    <rect
       style="color:#000000;fill:none;stroke:#000000;stroke-width:3;stroke-linecap:butt;stroke-linejoin:miter;stroke-miterlimit:4;stroke-opacity:1;stroke-dasharray:none;stroke-dashoffset:0;marker:none;visibility:visible;display:inline;overflow:visible;enable-background:accumulate"
       id="teaser"
       width="896.29932"
       height="492.1875"
       x="575.08221"
       y="740.8717" />
  </g>
</svg>
